<?xml version="1.0" encoding="UTF-8"?>
<svg version="1.1" xmlns="http://www.w3.org/2000/svg" width="1920" height="1080">
<path d="M0 0 C633.6 0 1267.2 0 1920 0 C1920 356.4 1920 712.8 1920 1080 C1286.4 1080 652.8 1080 0 1080 C0 723.6 0 367.2 0 0 Z M677.22692013 374.3845768 C676.44224247 375.90187825 675.69449501 377.43935929 675 379 C674.13665039 380.45321655 674.13665039 380.45321655 673.25585938 381.93579102 C672.78986328 382.78326904 672.32386719 383.63074707 671.84375 384.50390625 C671.30363281 385.47908203 670.76351562 386.45425781 670.20703125 387.45898438 C669.64371094 388.48314453 669.08039063 389.50730469 668.5 390.5625 C663.76369871 399.10097067 658.9476153 407.58222103 654 416 C649.23530957 424.11394839 644.57571394 432.27801401 640 440.5 C634.86368611 449.72931402 629.59787465 458.87236973 624.25 467.98046875 C620.07756041 475.1052819 616.01504756 482.28546141 612 489.5 C606.86656151 498.72414729 601.60422565 507.86240599 596.25878906 516.96508789 C591.38129277 525.29303709 586.66348171 533.70473351 581.96875 542.13671875 C578.34022142 548.64191863 574.62709777 555.08495594 570.81835938 561.48583984 C567.1869382 567.61789636 563.71663855 573.83613782 560.25 580.0625 C555.61320695 588.38972475 550.89299003 596.65866522 546.0625 604.875 C540.38147776 614.54567463 534.89740006 624.3150102 529.47167969 634.13085938 C524.21646661 643.63351147 518.85377498 653.07021989 513.44287109 662.48486328 C511.98425244 665.02745031 510.53212309 667.57363512 509.08203125 670.12109375 C502.92004789 680.9414917 496.68615775 691.71658711 490.36767578 702.4465332 C489.51278564 703.90385864 489.51278564 703.90385864 488.640625 705.390625 C487.87540527 706.6904834 487.87540527 706.6904834 487.09472656 708.01660156 C485.91946242 709.76833982 485.91946242 709.76833982 486 711 C670.47 711 854.94 711 1045 711 C1048.63 704.4 1052.26 697.8 1056 691 C1058.21101408 687.15307714 1060.42985904 683.31866269 1062.6875 679.5 C1067.80551123 670.78127036 1072.86565899 662.03160847 1077.875 653.25 C1078.20742706 652.6674646 1078.53985413 652.0849292 1078.88235474 651.48474121 C1081.25646185 647.32404876 1083.62849971 643.16217869 1086 639 C1088.70689377 634.24917808 1091.41470897 629.49888481 1094.125 624.75 C1094.62057404 623.88160492 1094.62057404 623.88160492 1095.12615967 622.9956665 C1100.40779817 613.7449535 1105.74611006 604.52849656 1111.13330078 595.33886719 C1115.47842915 587.92257478 1119.73448424 580.46465257 1124 573 C1124.33 618.54 1124.66 664.08 1125 711 C1161.96 711 1198.92 711 1237 711 C1241.95 702.09 1246.9 693.18 1252 684 C1258.9375 672.0625 1258.9375 672.0625 1262.41015625 666.14453125 C1266.27959943 659.54032574 1270.08264895 652.89864525 1273.875 646.25 C1274.20712494 645.66782715 1274.53924988 645.0856543 1274.88143921 644.48583984 C1276.57166414 641.52266249 1278.26111124 638.55904263 1279.95019531 635.59521484 C1283.71371819 628.99253919 1287.48724242 622.39557083 1291.25891113 615.79754639 C1294.66305779 609.84226382 1298.06587211 603.8862466 1301.4609375 597.92578125 C1301.9981543 596.983396 1302.53537109 596.04101074 1303.08886719 595.07006836 C1304.06701087 593.35396407 1305.04431643 591.63738161 1306.02050781 589.92016602 C1309.26737902 584.22623065 1312.6253712 578.62438134 1316 573 C1316.33 618.54 1316.66 664.08 1317 711 C1355.94 711 1394.88 711 1435 711 C1435.02202546 667.70303072 1435.04049729 624.4060667 1435.05106533 581.10909343 C1435.05231611 576.00314887 1435.05361042 570.89720431 1435.05493164 565.79125977 C1435.05519395 564.77471305 1435.05545626 563.75816634 1435.05572652 562.71081518 C1435.06008362 546.22831297 1435.06797138 529.74581423 1435.0771528 513.26331408 C1435.08648824 496.36397402 1435.09205538 479.46463578 1435.09408849 462.56529325 C1435.09546395 452.12868008 1435.09981576 441.69207672 1435.10791647 431.25546657 C1435.11318258 424.10890073 1435.1148046 416.96234 1435.11350138 409.81577236 C1435.11285778 405.68612335 1435.11387788 401.55649154 1435.11920547 397.42684555 C1435.12403939 393.65253813 1435.12433871 389.87825961 1435.12089889 386.10395091 C1435.12047319 384.73247458 1435.121769 383.36099652 1435.12488318 381.98952366 C1435.12884718 380.13733786 1435.12615636 378.28514127 1435.12304783 376.43295383 C1435.12342755 375.40049426 1435.12380727 374.36803468 1435.1241985 373.30428845 C1435.2592715 371.03659653 1435.2592715 371.03659653 1434 370 C1431.06800515 369.89929232 1428.15953272 369.86385776 1425.22705078 369.87060547 C1424.30467117 369.86885315 1423.38229156 369.86710083 1422.43196106 369.86529541 C1419.35305952 369.86086334 1416.27421473 369.86382579 1413.1953125 369.8671875 C1411.04181914 369.86651336 1408.88832586 369.86554242 1406.73483276 369.86428833 C1402.19333175 369.86280835 1397.65185031 369.86497003 1393.11035156 369.86962891 C1388.49998684 369.87413397 1383.88966147 369.8742514 1379.27929688 369.86962891 C1367.32682818 369.85813006 1355.37603104 369.87975205 1343.42388535 369.97352791 C1338.3185509 370.00692734 1333.22340939 369.98244186 1328.11973763 369.84871292 C1315.81535686 369.06477511 1315.81535686 369.06477511 1304.74267578 373.30712891 C1302.28394872 376.58208789 1300.92035237 379.54050975 1299.5 383.375 C1298.94040421 384.62615896 1298.36922832 385.87219718 1297.78710938 387.11303711 C1296.63981187 389.58407915 1295.54561223 392.0681284 1294.4921875 394.58056641 C1292.50356364 399.13761251 1290.0785784 403.32093223 1287.5 407.5625 C1286.61960131 409.06737902 1285.74205875 410.57393211 1284.8671875 412.08203125 C1284.41311523 412.8601416 1283.95904297 413.63825195 1283.49121094 414.43994141 C1275.20152817 428.6713778 1267.00087086 442.95283692 1258.92114258 457.30444336 C1254.19443306 465.68765038 1249.38663969 474.02307118 1244.55078125 482.34375 C1239.24393516 491.50042864 1234.14318665 500.74226404 1229 510 C1228.67 464.13 1228.34 418.26 1228 371 C1203.77773476 370.83529015 1203.77773476 370.83529015 1179.55543518 370.6758728 C1178.71649342 370.67046031 1177.87755166 370.66504782 1177.01318742 370.65947132 C1084.79507875 370.06589703 992.57639977 369.60193923 900.35642433 369.4516716 C896.12897339 369.44464792 891.90152274 369.43747436 887.67407227 369.43017578 C886.62614283 369.42837788 885.5782134 369.42657997 884.49852853 369.42472759 C867.09250767 369.39390555 849.68676388 369.32825056 832.28089196 369.25148933 C814.0621065 369.17183629 795.84347072 369.12594071 777.62451452 369.11253321 C766.54326892 369.10337294 755.46275014 369.06866198 744.38171422 368.99939831 C736.90253354 368.9551811 729.4237651 368.94381227 721.94447047 368.95897441 C717.64647565 368.96673213 713.34981169 368.95981976 709.05202866 368.91369247 C705.12541616 368.87186178 701.20107064 368.87138329 697.27439182 368.90412267 C695.8559049 368.90862404 694.43727097 368.89787046 693.01904345 368.87037258 C683.75134408 368.57235122 683.75134408 368.57235122 677.22692013 374.3845768 Z " fill="#000000" transform="translate(0,0)"/>
</svg>
